<?xml version="1.0" encoding="utf-8"?>
<!-- Generator: Adobe Illustrator 17.0.0, SVG Export Plug-In . SVG Version: 6.00 Build 0)  -->
<!DOCTYPE svg PUBLIC "-//W3C//DTD SVG 1.1//EN" "http://www.w3.org/Graphics/SVG/1.1/DTD/svg11.dtd">
<svg version="1.1" id="Layer_1" xmlns="http://www.w3.org/2000/svg" xmlns:xlink="http://www.w3.org/1999/xlink" x="0px" y="0px"
	 width="56.689px" height="56.689px" viewBox="0 0 56.689 56.689" enable-background="new 0 0 56.689 56.689" xml:space="preserve">
<g>
	<path fill="none" stroke="#ffffff" stroke-width="2" stroke-miterlimit="10" d="M28.5,45.288c-0.296,0-0.577-0.131-0.767-0.357
		c-0.551-0.658-13.49-16.194-13.49-23.792c0-7.861,6.396-14.257,14.257-14.257s14.257,6.395,14.257,14.257
		c0,7.598-12.94,23.134-13.491,23.792C29.076,45.157,28.796,45.288,28.5,45.288z"/>
	<path fill="none" stroke="#ffffff" stroke-width="2" stroke-miterlimit="10" d="M28.689,25.94c-3.262,0-5.917-2.654-5.917-5.916
		s2.654-5.916,5.917-5.916s5.916,2.654,5.916,5.916S31.951,25.94,28.689,25.94z"/>
	<path fill="none" stroke="#ffffff" stroke-width="2" stroke-miterlimit="10" d="M35.234,40.297
		c4.781,0.968,7.523,2.824,7.523,5.094c0,3.76-7.172,5.727-14.257,5.727s-14.257-1.967-14.257-5.727
		c0-2.293,2.788-4.159,7.648-5.119"/>
	<path fill="none" stroke="#ffffff" stroke-width="2" stroke-miterlimit="10" d="M22.356,41.201"/>
</g>
</svg>
