<?xml version="1.0" encoding="utf-8"?>
<!-- Generator: Adobe Illustrator 17.0.0, SVG Export Plug-In . SVG Version: 6.00 Build 0)  -->
<!DOCTYPE svg PUBLIC "-//W3C//DTD SVG 1.1//EN" "http://www.w3.org/Graphics/SVG/1.1/DTD/svg11.dtd">
<svg version="1.1" id="Layer_1" xmlns="http://www.w3.org/2000/svg" xmlns:xlink="http://www.w3.org/1999/xlink" x="0px" y="0px"
	 width="56.69px" height="56.69px" viewBox="0 0 56.69 56.69" enable-background="new 0 0 56.69 56.69" xml:space="preserve">
<path fill="none" stroke="#ffffff" stroke-width="2" stroke-miterlimit="10" d="M54.221,12.033V43.45c0,2.756-2.244,5-5,5H21.47
	v0.834c0,2.756-2.243,5-5,5h-9c-2.757,0-5-2.244-5-5V7.408c0-2.757,2.243-5,5-5h9c2.629,0,4.767,2.046,4.962,4.625h27.789
	C51.977,7.033,54.221,9.276,54.221,12.033z M52.221,12.033 M21.47,8.033V47.45"/>
<rect x="27.082" y="12.336" fill="none" stroke="#ffffff" stroke-width="2" stroke-miterlimit="10" width="22.009" height="6.811"/>
<path  fill="#ffffff" d="M30.318,22.386h-1.913c-0.686,0-1.241,0.555-1.241,1.24v1.913c0,0.685,0.556,1.241,1.241,1.241h1.913
	c0.686,0,1.242-0.557,1.242-1.241v-1.913C31.561,22.941,31.004,22.386,30.318,22.386z"/>
<path fill="#ffffff" d="M39.127,22.386h-1.914c-0.686,0-1.24,0.555-1.24,1.24v1.912c0,0.686,0.555,1.24,1.24,1.24h1.914
	c0.684,0,1.24-0.555,1.24-1.24v-1.912C40.367,22.941,39.811,22.386,39.127,22.386z"/>
<path  fill="#ffffff" d="M47.934,22.386H46.02c-0.684,0-1.24,0.555-1.24,1.24v1.912c0,0.686,0.557,1.24,1.24,1.24h1.914
	c0.684,0,1.24-0.555,1.24-1.24v-1.912C49.174,22.941,48.617,22.386,47.934,22.386z"/>
<path  fill="#ffffff" d="M30.318,30.125h-1.913c-0.686,0-1.241,0.553-1.241,1.24v1.912c0,0.686,0.556,1.24,1.241,1.24h1.913
	c0.686,0,1.242-0.555,1.242-1.24v-1.912C31.561,30.678,31.004,30.125,30.318,30.125z"/>
<path  fill="#ffffff" d="M30.318,37.861h-1.913c-0.686,0-1.241,0.555-1.241,1.242v1.91c0,0.686,0.556,1.242,1.241,1.242h1.913
	c0.686,0,1.242-0.557,1.242-1.242v-1.91C31.561,38.416,31.004,37.861,30.318,37.861z"/>
<path  fill="#ffffff"  d="M39.127,30.123h-1.914c-0.686,0-1.24,0.555-1.24,1.24v1.916c0,0.682,0.555,1.238,1.24,1.238h1.914
	c0.684,0,1.24-0.557,1.24-1.238v-1.916C40.367,30.678,39.811,30.123,39.127,30.123z"/>
<path  fill="#ffffff" d="M39.127,37.861h-1.914c-0.686,0-1.24,0.555-1.24,1.24v1.912c0,0.686,0.555,1.242,1.24,1.242h1.914
	c0.684,0,1.24-0.557,1.24-1.242v-1.912C40.367,38.416,39.811,37.861,39.127,37.861z"/>
<path  fill="#ffffff" d="M47.934,30.123H46.02c-0.686,0-1.24,0.555-1.24,1.24v1.916c0,0.682,0.555,1.238,1.24,1.238h1.914
	c0.684,0,1.24-0.557,1.24-1.238v-1.916C49.174,30.678,48.617,30.123,47.934,30.123z"/>
<path  fill="#ffffff" d="M47.934,37.861H46.02c-0.686,0-1.24,0.555-1.24,1.24v1.912c0,0.686,0.555,1.242,1.24,1.242h1.914
	c0.684,0,1.24-0.557,1.24-1.242v-1.912C49.174,38.416,48.617,37.861,47.934,37.861z"/>
</svg>
