<?xml version="1.0" encoding="utf-8"?>
<!-- Generator: Adobe Illustrator 17.0.0, SVG Export Plug-In . SVG Version: 6.00 Build 0)  -->
<!DOCTYPE svg PUBLIC "-//W3C//DTD SVG 1.1//EN" "http://www.w3.org/Graphics/SVG/1.1/DTD/svg11.dtd">
<svg version="1.1" id="Layer_1" xmlns="http://www.w3.org/2000/svg" xmlns:xlink="http://www.w3.org/1999/xlink" x="0px" y="0px"
	 width="56.69px" height="56.69px" viewBox="0 0 56.69 56.69" enable-background="new 0 0 56.69 56.69" xml:space="preserve">
<path fill="none" stroke="#ffffff" stroke-width="2" stroke-miterlimit="10" d="M12.916,18.107h30.75 M32.5,10.106H12.917
	 M43.666,23.773h-30.75 M54.221,22.476v1.101v23.298v1.102c0,3.309-2.691,6-6,6H8.47c-3.309,0-6-2.691-6-6v-1.102V23.578v-1.102
	c0-0.368,0.035-0.727,0.099-1.076c0.021-0.111,0.061-0.214,0.087-0.323c0.057-0.234,0.111-0.469,0.195-0.692
	c0.043-0.117,0.104-0.224,0.155-0.337c0.092-0.204,0.18-0.408,0.292-0.599c0.063-0.107,0.142-0.204,0.211-0.307
	c0.123-0.183,0.245-0.364,0.388-0.532c0.079-0.093,0.169-0.175,0.253-0.263c0.153-0.16,0.307-0.318,0.477-0.461
	c0.093-0.077,0.192-0.143,0.289-0.214c0.181-0.133,0.361-0.263,0.556-0.376c0.104-0.06,0.214-0.109,0.321-0.163
	c0.202-0.102,0.405-0.197,0.619-0.276c0.053-0.02,0.104-0.043,0.157-0.061V7.714c0-2.757,2.243-5,5-5h33.542c2.758,0,5,2.243,5,5
	v9.077c0.021,0.007,0.043,0.017,0.064,0.025c0.184,0.063,0.354,0.151,0.527,0.231c0.146,0.066,0.297,0.122,0.436,0.2
	c0.168,0.093,0.316,0.208,0.473,0.316c0.131,0.091,0.27,0.17,0.393,0.271c0.148,0.12,0.277,0.261,0.412,0.394
	c0.113,0.111,0.234,0.211,0.338,0.331c0.127,0.147,0.23,0.312,0.344,0.47c0.09,0.125,0.189,0.242,0.27,0.374
	c0.105,0.175,0.184,0.365,0.27,0.551c0.063,0.133,0.139,0.258,0.191,0.396c0.082,0.213,0.131,0.44,0.189,0.664
	c0.031,0.123,0.078,0.24,0.102,0.366C54.186,21.735,54.221,22.102,54.221,22.476z M19.178,31.762l4.259,2.293l0.001-0.001
	l4.906,3.001l4.906-3.001l0.002,0.001l16.859-9.087V7.714c0-1.654-1.599-5-5-5H11.569c-1.654,0-4.891,1.881-5,5v17.249
	L19.178,31.762 M53.219,48.995L33.25,34.398l-4.906,3l-4.906-3L2.62,49.307c0.001,0.146,1.164,2.533,1.296,2.573
	c1.388,1.19,2.15,1.621,2.273,1.646c0.26,0.053,1.006,0.45,1.282,0.45h41.75c0.275,0,1.625-0.596,1.768-0.678
	c0.78-0.405,2.34-2.254,2.418-2.306C53.543,50.899,54.221,49.428,53.219,48.995z"/>
</svg>
